<svg xmlns="http://www.w3.org/2000/svg" width="1024" height="1024" viewBox="0 0 100 100" color="#D74C32">
      <defs>
        
        
      <filter id="dl-74-shadow" x="-40%" y="-40%" width="180%" height="180%">
        <feDropShadow dx="0" dy="1" stdDeviation="0.75" flood-color="rgba(0,0,0,0.08)"/>
        <feDropShadow dx="0" dy="2.5" stdDeviation="2.5" flood-color="rgba(215, 76, 50, 0.48)"/>
      </filter>
      </defs>
      <rect width="100" height="100" rx="22" fill="#FFFFFF"/>
      <g filter="url(#dl-74-shadow)">
        <path d="M85 50A35 35 0 1 1 15 50A35 35 0 1 1 85 50ZM34 31Q30 31 30 35V40Q30 44 34 44H42V65Q42 70 47 70H53Q58 70 58 65V44H66Q70 44 70 40V35Q70 31 66 31Z" fill="currentColor" fill-rule="evenodd"/>
        <path fill="#FFFFFF" d="M34 31Q30 31 30 35V40Q30 44 34 44H42V65Q42 70 47 70H53Q58 70 58 65V44H66Q70 44 70 40V35Q70 31 66 31Z"/>
      </g>
    </svg>